<svg width="270" height="77" viewBox="0 0 270 77" fill="none" xmlns="http://www.w3.org/2000/svg">
<path d="M113.304 20.2872H120.995V60.7804H144.594V68.1429H113.304V20.2872Z" fill="#31D716"/>
<path d="M150.897 53.9439C150.897 51.1392 151.554 48.6193 152.869 46.3843C154.184 44.1055 156.024 42.3306 158.391 41.0597C160.801 39.745 163.518 39.0876 166.542 39.0876C169.654 39.0876 172.349 39.745 174.628 41.0597C176.95 42.3306 178.747 44.1055 180.018 46.3843C181.289 48.6193 181.924 51.1392 181.924 53.9439C181.924 56.7486 181.289 59.2904 180.018 61.5693C178.747 63.8043 176.95 65.5792 174.628 66.8939C172.349 68.2086 169.632 68.866 166.476 68.866C163.496 68.866 160.823 68.2743 158.457 67.0911C156.09 65.864 154.228 64.133 152.869 61.898C151.554 59.6629 150.897 57.0116 150.897 53.9439ZM158.325 54.0097C158.325 55.6311 158.676 57.1211 159.377 58.4797C160.078 59.7944 161.042 60.8462 162.269 61.635C163.496 62.4238 164.855 62.8183 166.345 62.8183C167.966 62.8183 169.369 62.4238 170.552 61.635C171.779 60.8462 172.721 59.7944 173.379 58.4797C174.08 57.1211 174.43 55.6311 174.43 54.0097C174.43 52.3443 174.08 50.8543 173.379 49.5396C172.721 48.1811 171.779 47.1074 170.552 46.3186C169.369 45.5297 167.966 45.1353 166.345 45.1353C164.811 45.1353 163.431 45.5516 162.204 46.3843C161.02 47.1731 160.078 48.2249 159.377 49.5396C158.676 50.8543 158.325 52.3443 158.325 54.0097Z" fill="#31D716"/>
<path d="M189.661 68.1429V16.8689H197.023V68.1429H189.661ZM203.925 49.4739L216.612 68.1429H208.067L199.061 53.681L203.925 49.4739ZM194.788 59.7944L194.065 52.6949L210.959 39.6792L215.429 43.6234L194.788 59.7944Z" fill="#31D716"/>
<path d="M234.807 68.866C232.178 68.866 229.789 68.3182 227.642 67.2226C225.538 66.127 223.873 64.5055 222.646 62.3581C221.419 60.1669 220.805 57.4717 220.805 54.2726C220.805 51.1173 221.441 48.4221 222.712 46.1871C224.027 43.9082 225.736 42.1553 227.839 40.9282C229.987 39.7011 232.309 39.0876 234.807 39.0876C237.481 39.0876 239.628 39.6135 241.249 40.6653C242.915 41.717 244.207 42.966 245.128 44.4122L244.733 45.464L245.456 40.3366H252.227V68.1429H244.865V61.3721L245.588 63.1469C245.413 63.4099 245.062 63.8481 244.536 64.4617C244.01 65.0314 243.287 65.6668 242.367 66.368C241.447 67.0692 240.351 67.6608 239.08 68.1429C237.853 68.6249 236.429 68.866 234.807 68.866ZM236.845 62.8183C238.16 62.8183 239.343 62.5772 240.395 62.0952C241.49 61.6131 242.411 60.9338 243.156 60.0574C243.945 59.1809 244.514 58.1291 244.865 56.902V50.8543C244.514 49.7149 243.945 48.7289 243.156 47.8962C242.367 47.0197 241.403 46.3405 240.263 45.8584C239.168 45.3763 237.941 45.1353 236.582 45.1353C235.092 45.1353 233.712 45.5078 232.441 46.2528C231.17 46.9978 230.14 48.0277 229.351 49.3424C228.606 50.6571 228.234 52.169 228.234 53.8782C228.234 55.5435 228.628 57.0554 229.417 58.414C230.206 59.7725 231.258 60.8462 232.572 61.635C233.887 62.4238 235.311 62.8183 236.845 62.8183Z" fill="#31D716"/>
<path d="M262.394 16.8689H269.756V68.1429H262.394V16.8689Z" fill="#31D716"/>
<path d="M13.1428 31.9048H66.3174V76.5715H13.1428V31.9048Z" fill="#31D716"/>
<path d="M39.7302 0L79.3337 33.5H0.126709L39.7302 0Z" fill="#31D716"/>
<path d="M25.9048 38.2857H53.5556V65.9365H25.9048V38.2857Z" fill="white"/>
<path d="M19.5238 51.0476H59.9365V53.1746H19.5238V51.0476Z" fill="#31D716"/>
<path d="M40.7937 31.9048L40.7937 72.3175L38.6667 72.3175L38.6667 31.9048L40.7937 31.9048Z" fill="#31D716"/>
</svg>
