<svg id="Layer_1" data-name="Layer 1" xmlns="http://www.w3.org/2000/svg" viewBox="0 0 599.18 567.86"><defs><style>.cls-1{fill:#e6cf1b;}</style></defs><path class="cls-1" d="M95.79,238.3c16.55-2.3,31.69-4.14,46.74-6.56,18.31-2.94,36.69-5.38,55-8.06s36.4-5.48,54.65-8c16.24-2.21,32.39-5,48.6-7.49a4.07,4.07,0,0,0,3.57-2.69c15.77-32.08,31.71-64.08,47.54-96.13Q373,66.63,394,23.76c.44-.88.48-2,1.83-1.89,1.1.12,1.56.92,2,1.9q19.94,40.5,39.95,81Q457.4,144.41,477,184.07c3.55,7.2,7.25,14.32,10.76,21.53.62,1.26,1,2.25,2.63,2.47,9.68,1.29,19.36,2.63,29,4.09,11.62,1.74,23.2,3.7,34.82,5.43,10.51,1.56,21.05,2.9,31.56,4.4,12.32,1.74,24.62,3.56,36.93,5.33,11.16,1.59,22.34,3,33.48,4.76,12.72,2,25.58,3.14,38.82,6-5.66,5.71-10.75,11-16,16.11q-65,63.75-130,127.39c-2.53,2.48-2.72,4.49-2,7.8,2,9,3.31,18.25,4.92,27.38,1.87,10.59,3.81,21.16,5.62,31.76,1.56,9.13,2.91,18.3,4.49,27.44,1.74,10.1,3.68,20.16,5.43,30.26,1.57,9,2.94,18,4.5,27,1.79,10.43,3.88,20.81,5.49,31.27,1.21,7.85,2.26,15.73,4,23.48.16.7.21,1.41-.56,1.64a3.58,3.58,0,0,1-2.76-.68c-9.87-5.24-19.79-10.37-29.67-15.57Q494,544.73,439.57,516.06c-13.34-7-26.75-13.92-40.07-21a6,6,0,0,0-6.43,0q-62.56,33.16-125.27,66.09c-17.56,9.24-35.19,18.35-52.69,27.71-3.29,1.76-3.75.89-3.22-2.21,1.88-10.92,3.77-21.84,5.6-32.76,1.56-9.31,3-18.64,4.56-27.94,1.71-10.13,3.55-20.24,5.27-30.37,1.62-9.46,3.13-18.94,4.75-28.4,1.76-10.27,3.62-20.52,5.38-30.78,1.55-9,3-18,4.54-27,1.12-6.51,2.24-13,3.55-19.51.66-3.31.19-5.73-2.48-8.32q-65.25-63.45-130.29-127.13C107.48,249.27,102.06,244.24,95.79,238.3Z" transform="translate(-95.79 -21.86)"/></svg>